<svg id="Layer_1" data-name="Layer 1" xmlns="http://www.w3.org/2000/svg" viewBox="0 0 4007.52 2007.85"><defs><style>.cls-1{fill:#0b0d0f;}.cls-2{fill:#448ee2;}</style></defs><title>Skyeex black clr</title><path class="cls-1" d="M717.73,1128.85q-83,0-138.78-24.54t-84.78-64.26q-29-39.7-30.79-83.44a18.3,18.3,0,0,1,18.74-18.74h79.43q11.6,0,17.4,4.91a51.45,51.45,0,0,1,10.26,12q5.37,17,20.53,33.47t41.5,27.22q26.31,10.71,66.49,10.71,64.24,0,95.93-21.42t31.68-58q0-25.87-17-41.5t-52.2-28.55q-35.26-12.93-93.26-27.22-66.93-16.07-112-38.82t-67.83-57.56q-22.75-34.82-22.75-88.35,0-51.75,28.11-91.92t80.31-63.37q52.22-23.19,124.5-23.2,58,0,102.63,15.62T890,543q29.46,25.44,45.07,54.44t16.5,56.67a19.58,19.58,0,0,1-4.9,12.94q-4.92,5.81-13.83,5.8h-83a31.65,31.65,0,0,1-14.28-3.57q-7.15-3.56-11.6-13.39-5.35-27.65-34.8-47.3t-75.86-19.63q-48.18,0-77.64,17.85t-29.45,55.33q0,25,14.73,41.5t47.29,29q32.56,12.51,86.13,26.77,75.82,17,124,39.27t70.5,56.67q22.3,34.36,22.31,87,0,58.9-31.68,100.4t-88.8,63.81Q793.59,1128.83,717.73,1128.85Z"/><path class="cls-1" d="M1085.4,1119.92A21.34,21.34,0,0,1,1064,1098.5V507.72a21.34,21.34,0,0,1,21.42-21.42h72.29q9.81,0,15.61,6.25a21.54,21.54,0,0,1,5.8,15.17V812.93L1329,671a120.83,120.83,0,0,1,14.28-11.15q6.24-4,18.74-4h83q8.93,0,14.29,5.36t5.35,14.28a21.91,21.91,0,0,1-1.79,8c-1.2,3-3.56,5.66-7.13,8L1271.91,863.8l206.16,221.32q8.91,8.93,8.92,15.17,0,8.93-5.8,14.28a19.71,19.71,0,0,1-13.83,5.35h-84.78q-13.39,0-19.19-4a149.52,149.52,0,0,1-13.83-11.16L1179.1,925.37V1098.5a21.47,21.47,0,0,1-5.8,15.17q-5.8,6.25-15.61,6.25Z"/><path class="cls-1" d="M1658.88,1288a18.3,18.3,0,0,1-17.85-17.85,45.51,45.51,0,0,1,.45-6.69,21.37,21.37,0,0,1,3.12-7.59l69.61-165.09L1542.87,686.5c-2.39-5.94-3.57-10.11-3.57-12.5a23.67,23.67,0,0,1,6.24-13.83,17.48,17.48,0,0,1,13.39-5.8h72.29q10.69,0,16.06,5.35a37.05,37.05,0,0,1,8,11.61L1774,963.15l122.27-291.82a30.77,30.77,0,0,1,8-12.05c3.57-3.26,8.93-4.91,16.07-4.91h71.39a18.67,18.67,0,0,1,12.94,5.35,16.55,16.55,0,0,1,5.8,12.5c0,3.57-1.2,8.34-3.56,14.28L1754.37,1271a41.26,41.26,0,0,1-8.93,12q-5.34,4.9-16.06,4.91Z"/><path class="cls-1" d="M2249.1,1128.85q-99.06,0-157.06-57.12t-62.47-162.42q-.91-8.91-.9-22.76a204.25,204.25,0,0,1,.9-21.86q3.56-66.93,30.79-116t75.4-75.4q48.19-26.32,113.34-26.33,72.29,0,121.37,29.89t74.08,83q25,53.1,25,122.71v18.74a20.69,20.69,0,0,1-6.24,15.17q-6.27,6.25-16.07,6.25H2150.93v7.14q.89,31.24,12.05,57.56t33,42.39q21.87,16.07,52.21,16.06,25,0,41.94-7.59t27.67-17.4q10.69-9.81,15.17-16.06,8-10.71,12.94-12.94t14.72-2.23h76.75q8.91,0,14.73,5.35a15.07,15.07,0,0,1,4.91,13.39q-.91,14.28-14.73,34.8t-39.71,40.16q-25.89,19.65-64.7,32.58T2249.1,1128.85Zm-98.17-281.12h197.23v-2.67q0-34.81-11.6-60.69t-33.91-41q-22.32-15.17-53.55-15.17t-53.54,15.17q-22.32,15.18-33.47,41t-11.16,60.69Z"/><path class="cls-1" d="M3043.8,690.67l146,188.52q35.49-38.54,70.27-80.07L3159.82,671a53,53,0,0,0-8-9.81c-3.58-3.57-8.92-5.36-16.07-5.36h-77.64a19.8,19.8,0,0,0-19.63,19.64,20.17,20.17,0,0,0,1.34,7.13A49.86,49.86,0,0,0,3043.8,690.67Z"/><path class="cls-1" d="M3483.77,1085.12,3351.71,916.31q-32.6,43-68.44,83.67l81.81,105.66A81.52,81.52,0,0,0,3374,1115q5.36,4.92,15.17,4.91h81.21a19.79,19.79,0,0,0,19.63-19.63,18.25,18.25,0,0,0-1.33-6.25A47.46,47.46,0,0,0,3483.77,1085.12Z"/><path class="cls-1" d="M2764,1128.85q-99.06,0-157.07-57.12t-62.47-162.42q-.9-8.91-.89-22.76a207.41,207.41,0,0,1,.89-21.86q3.56-66.93,30.79-116t75.41-75.4q48.2-26.32,113.34-26.33,72.27,0,121.36,29.89t74.08,83q25,53.1,25,122.71v18.74a20.66,20.66,0,0,1-6.25,15.17q-6.26,6.25-16.07,6.25H2665.86v7.14q.87,31.24,12,57.56t33,42.39q21.86,16.07,52.2,16.06,25,0,41.95-7.59t27.66-17.4q10.71-9.81,15.17-16.06,8-10.71,12.94-12.94t14.73-2.23h76.75q8.91,0,14.72,5.35a15,15,0,0,1,4.91,13.39q-.9,14.28-14.72,34.8t-39.71,40.16q-25.91,19.65-64.7,32.58T2764,1128.85Zm-98.17-281.12h197.23v-2.67q0-34.81-11.61-60.69t-33.91-41q-22.32-15.17-53.54-15.17t-53.55,15.17q-22.32,15.18-33.46,41t-11.16,60.69Z"/><path class="cls-2" d="M463.38,1185.06c32.26,18.29,66,33.61,100,48.13s68.41,28.2,103.12,41q104.09,38.38,210.52,69.59a3590.72,3590.72,0,0,0,431.22,98.89c145.41,23.63,292.07,38.91,438.84,41.83,146.68,3.1,293.44-5.22,437.55-28.47,142.23-23,284.83-61.31,419.6-116.29,417.24-169.32,709.79-501.1,939.87-876.34-20.61,132.39-112.59,275.62-188,383.78-174.75,250.46-437.85,452.92-723.8,562.48-141,55.32-288.66,92-437.77,112.4s-299.84,25.5-449.4,18.22c-74.79-3.73-149.32-10.67-223.43-20.13s-147.8-21.77-220.91-36.57-145.72-31.79-217.57-51.43C875,1375.21,646.91,1304.45,463.38,1185.06Z"/></svg>